<svg width="400" height="54" viewBox="0 0 400 54" fill="none" xmlns="http://www.w3.org/2000/svg">
<path d="M96.0149 0.118814C95.8092 0.114001 95.6029 0.11158 95.3961 0.11158C80.7997 0.11158 68.5119 12.1759 68.5119 26.5489C68.5119 40.9219 80.7997 53.0607 95.3961 53.0607C95.6029 53.0607 95.8092 53.0583 96.0149 53.0535V44.5591C95.8095 44.567 95.6032 44.571 95.3961 44.571C85.9382 44.571 77.9698 36.3791 77.9698 26.5489C77.9698 16.7932 85.9382 8.60132 95.3961 8.60132C95.6029 8.60132 95.8092 8.60541 96.0149 8.61351V0.118814Z" fill="white"/>
<path d="M41.1082 37.3473C41.1082 46.5073 34.1079 52.9863 21.8946 52.9863C13.107 52.9863 5.65983 50.0074 0 44.7199L5.36194 38.092C10.0536 42.3369 15.49 45.0178 22.1925 45.0178C28.5225 45.0178 31.7993 41.89 31.7993 38.2409C31.7993 33.9961 28.1502 32.5811 19.9583 30.6448C9.38339 28.1873 2.01073 25.134 2.01073 15.5272C2.01073 6.59059 9.60681 0.0371094 20.4052 0.0371094C28.5225 0.0371094 34.6292 2.79255 39.7677 7.18636L34.7037 14.0377C30.2354 10.1652 25.0969 8.00555 20.0328 8.00555C14.8943 8.00555 11.3941 11.1333 11.3941 14.708C11.3941 18.8784 15.1922 20.3678 23.3095 22.2296C33.9589 24.6127 41.1082 28.0384 41.1082 37.3473Z" fill="white"/>
<path d="M148.074 53.0603C162.596 53.0603 174.884 40.9214 174.884 26.5484C174.884 12.1755 162.596 0.111095 148.074 0.111095C133.478 0.111095 121.19 12.1755 121.19 26.5484C121.19 40.9214 133.478 53.0603 148.074 53.0603ZM148.074 44.5705C138.616 44.5705 130.648 36.3787 130.648 26.5484C130.648 16.7927 138.616 8.60083 148.074 8.60083C157.457 8.60083 165.351 16.7927 165.351 26.5484C165.351 36.3787 157.457 44.5705 148.074 44.5705Z" fill="white"/>
<path d="M204.938 52.1666H214.247V16.1969L241.28 52.1666H250.515V1.00475H241.28V36.9744L214.247 1.00475H204.938V52.1666Z" fill="white"/>
<path d="M296.423 52.1666H305.658V9.49449H322.041V1.00475H280.04V9.49449H296.423V52.1666Z" fill="white"/>
<path d="M373.027 53.0603C387.549 53.0603 399.837 40.9214 399.837 26.5484C399.837 12.1755 387.549 0.111095 373.027 0.111095C358.431 0.111095 346.143 12.1755 346.143 26.5484C346.143 40.9214 358.431 53.0603 373.027 53.0603ZM373.027 44.5705C363.569 44.5705 355.601 36.3787 355.601 26.5484C355.601 16.7927 363.569 8.60083 373.027 8.60083C382.41 8.60083 390.304 16.7927 390.304 26.5484C390.304 36.3787 382.41 44.5705 373.027 44.5705Z" fill="white"/>
</svg>
