<svg width="21" height="23" viewBox="0 0 21 23" fill="none" xmlns="http://www.w3.org/2000/svg">
<path d="M5.30762 10.347V6.34705C5.30762 5.02096 5.8344 3.74919 6.77208 2.81151C7.70977 1.87383 8.98153 1.34705 10.3076 1.34705C11.6337 1.34705 12.9055 1.87383 13.8432 2.81151C14.7808 3.74919 15.3076 5.02096 15.3076 6.34705V10.347M3.30762 10.347H17.3076C18.4122 10.347 19.3076 11.2425 19.3076 12.347V19.347C19.3076 20.4516 18.4122 21.347 17.3076 21.347H3.30762C2.20305 21.347 1.30762 20.4516 1.30762 19.347V12.347C1.30762 11.2425 2.20305 10.347 3.30762 10.347Z" stroke="#858585" stroke-width="2" stroke-linecap="round" stroke-linejoin="round"/>
</svg>
