<svg width="156" height="156" viewBox="0 0 156 156" fill="none" xmlns="http://www.w3.org/2000/svg">
<path d="M48.6615 0.578247H43.3362V5.90355H48.6615V0.578247Z" fill="#C4F500"/>
<path d="M53.9868 0.578247H48.6615V5.90355H53.9868V0.578247Z" fill="#C4F500"/>
<path d="M59.3121 0.578247H53.9868V5.90355H59.3121V0.578247Z" fill="#C4F500"/>
<path d="M69.9626 0.578247H64.6373V5.90355H69.9626V0.578247Z" fill="#C4F500"/>
<path d="M75.2879 0.578247H69.9626V5.90355H75.2879V0.578247Z" fill="#C4F500"/>
<path d="M80.6133 0.578247H75.288V5.90355H80.6133V0.578247Z" fill="#C4F500"/>
<path d="M85.9386 0.578247H80.6133V5.90355H85.9386V0.578247Z" fill="#C4F500"/>
<path d="M101.914 0.578247H96.5891V5.90355H101.914V0.578247Z" fill="#C4F500"/>
<path d="M112.565 0.578247H107.24V5.90355H112.565V0.578247Z" fill="#C4F500"/>
<path d="M48.6615 5.9035H43.3362V11.2288H48.6615V5.9035Z" fill="#C4F500"/>
<path d="M75.2879 5.9035H69.9626V11.2288H75.2879V5.9035Z" fill="#C4F500"/>
<path d="M80.6133 5.9035H75.288V11.2288H80.6133V5.9035Z" fill="#C4F500"/>
<path d="M85.9386 5.9035H80.6133V11.2288H85.9386V5.9035Z" fill="#C4F500"/>
<path d="M96.5892 5.9035H91.2639V11.2288H96.5892V5.9035Z" fill="#C4F500"/>
<path d="M107.24 5.9035H101.914V11.2288H107.24V5.9035Z" fill="#C4F500"/>
<path d="M48.6615 11.2288H43.3362V16.5541H48.6615V11.2288Z" fill="#C4F500"/>
<path d="M53.9868 11.2288H48.6615V16.5541H53.9868V11.2288Z" fill="#C4F500"/>
<path d="M59.3121 11.2288H53.9868V16.5541H59.3121V11.2288Z" fill="#C4F500"/>
<path d="M69.9626 11.2288H64.6373V16.5541H69.9626V11.2288Z" fill="#C4F500"/>
<path d="M75.2879 11.2288H69.9626V16.5541H75.2879V11.2288Z" fill="#C4F500"/>
<path d="M80.6133 11.2288H75.288V16.5541H80.6133V11.2288Z" fill="#C4F500"/>
<path d="M101.914 11.2288H96.5891V16.5541H101.914V11.2288Z" fill="#C4F500"/>
<path d="M64.6374 16.5542H59.3121V21.8795H64.6374V16.5542Z" fill="#C4F500"/>
<path d="M69.9626 16.5542H64.6373V21.8795H69.9626V16.5542Z" fill="#C4F500"/>
<path d="M80.6133 16.5542H75.288V21.8795H80.6133V16.5542Z" fill="#C4F500"/>
<path d="M85.9386 16.5542H80.6133V21.8795H85.9386V16.5542Z" fill="#C4F500"/>
<path d="M96.5892 16.5542H91.2639V21.8795H96.5892V16.5542Z" fill="#C4F500"/>
<path d="M48.6615 21.8795H43.3362V27.2048H48.6615V21.8795Z" fill="#C4F500"/>
<path d="M53.9868 21.8795H48.6615V27.2048H53.9868V21.8795Z" fill="#C4F500"/>
<path d="M59.3121 21.8795H53.9868V27.2048H59.3121V21.8795Z" fill="#C4F500"/>
<path d="M75.2879 21.8795H69.9626V27.2048H75.2879V21.8795Z" fill="#C4F500"/>
<path d="M85.9386 21.8795H80.6133V27.2048H85.9386V21.8795Z" fill="#C4F500"/>
<path d="M96.5892 21.8795H91.2639V27.2048H96.5892V21.8795Z" fill="#C4F500"/>
<path d="M101.914 21.8795H96.5891V27.2048H101.914V21.8795Z" fill="#C4F500"/>
<path d="M107.24 21.8795H101.914V27.2048H107.24V21.8795Z" fill="#C4F500"/>
<path d="M53.9868 27.2047H48.6615V32.53H53.9868V27.2047Z" fill="#C4F500"/>
<path d="M59.3121 27.2047H53.9868V32.53H59.3121V27.2047Z" fill="#C4F500"/>
<path d="M64.6374 27.2047H59.3121V32.53H64.6374V27.2047Z" fill="#C4F500"/>
<path d="M75.2879 27.2047H69.9626V32.53H75.2879V27.2047Z" fill="#C4F500"/>
<path d="M80.6133 27.2047H75.288V32.53H80.6133V27.2047Z" fill="#C4F500"/>
<path d="M101.914 27.2047H96.5891V32.53H101.914V27.2047Z" fill="#C4F500"/>
<path d="M112.565 27.2047H107.24V32.53H112.565V27.2047Z" fill="#C4F500"/>
<path d="M48.6615 32.5301H43.3362V37.8554H48.6615V32.5301Z" fill="#C4F500"/>
<path d="M59.3121 32.5301H53.9868V37.8554H59.3121V32.5301Z" fill="#C4F500"/>
<path d="M69.9626 32.5301H64.6373V37.8554H69.9626V32.5301Z" fill="#C4F500"/>
<path d="M80.6133 32.5301H75.288V37.8554H80.6133V32.5301Z" fill="#C4F500"/>
<path d="M91.2639 32.5301H85.9386V37.8554H91.2639V32.5301Z" fill="#C4F500"/>
<path d="M101.914 32.5301H96.5891V37.8554H101.914V32.5301Z" fill="#C4F500"/>
<path d="M112.565 32.5301H107.24V37.8554H112.565V32.5301Z" fill="#C4F500"/>
<path d="M69.9626 37.8553H64.6373V43.1806H69.9626V37.8553Z" fill="#C4F500"/>
<path d="M80.6133 37.8553H75.288V43.1806H80.6133V37.8553Z" fill="#C4F500"/>
<path d="M112.565 37.8553H107.24V43.1806H112.565V37.8553Z" fill="#C4F500"/>
<path d="M6.05907 43.1806H0.733765V48.5059H6.05907V43.1806Z" fill="#C4F500"/>
<path d="M22.035 43.1806H16.7097V48.5059H22.035V43.1806Z" fill="#C4F500"/>
<path d="M27.3602 43.1806H22.0349V48.5059H27.3602V43.1806Z" fill="#C4F500"/>
<path d="M32.6855 43.1806H27.3602V48.5059H32.6855V43.1806Z" fill="#C4F500"/>
<path d="M38.0108 43.1806H32.6855V48.5059H38.0108V43.1806Z" fill="#C4F500"/>
<path d="M43.3362 43.1806H38.0109V48.5059H43.3362V43.1806Z" fill="#C4F500"/>
<path d="M48.6615 43.1806H43.3362V48.5059H48.6615V43.1806Z" fill="#C4F500"/>
<path d="M64.6374 43.1806H59.3121V48.5059H64.6374V43.1806Z" fill="#C4F500"/>
<path d="M75.2879 43.1806H69.9626V48.5059H75.2879V43.1806Z" fill="#C4F500"/>
<path d="M80.6133 43.1806H75.288V48.5059H80.6133V43.1806Z" fill="#C4F500"/>
<path d="M85.9386 43.1806H80.6133V48.5059H85.9386V43.1806Z" fill="#C4F500"/>
<path d="M91.2639 43.1806H85.9386V48.5059H91.2639V43.1806Z" fill="#C4F500"/>
<path d="M96.5892 43.1806H91.2639V48.5059H96.5892V43.1806Z" fill="#C4F500"/>
<path d="M107.24 43.1806H101.914V48.5059H107.24V43.1806Z" fill="#C4F500"/>
<path d="M117.89 43.1806H112.565V48.5059H117.89V43.1806Z" fill="#C4F500"/>
<path d="M133.866 43.1806H128.541V48.5059H133.866V43.1806Z" fill="#C4F500"/>
<path d="M144.517 43.1806H139.192V48.5059H144.517V43.1806Z" fill="#C4F500"/>
<path d="M149.842 43.1806H144.517V48.5059H149.842V43.1806Z" fill="#C4F500"/>
<path d="M155.167 43.1806H149.842V48.5059H155.167V43.1806Z" fill="#C4F500"/>
<path d="M27.3602 48.5059H22.0349V53.8312H27.3602V48.5059Z" fill="#C4F500"/>
<path d="M53.9868 48.5059H48.6615V53.8312H53.9868V48.5059Z" fill="#C4F500"/>
<path d="M59.3121 48.5059H53.9868V53.8312H59.3121V48.5059Z" fill="#C4F500"/>
<path d="M64.6374 48.5059H59.3121V53.8312H64.6374V48.5059Z" fill="#C4F500"/>
<path d="M80.6133 48.5059H75.288V53.8312H80.6133V48.5059Z" fill="#C4F500"/>
<path d="M96.5892 48.5059H91.2639V53.8312H96.5892V48.5059Z" fill="#C4F500"/>
<path d="M101.914 48.5059H96.5891V53.8312H101.914V48.5059Z" fill="#C4F500"/>
<path d="M107.24 48.5059H101.914V53.8312H107.24V48.5059Z" fill="#C4F500"/>
<path d="M117.89 48.5059H112.565V53.8312H117.89V48.5059Z" fill="#C4F500"/>
<path d="M128.541 48.5059H123.216V53.8312H128.541V48.5059Z" fill="#C4F500"/>
<path d="M133.866 48.5059H128.541V53.8312H133.866V48.5059Z" fill="#C4F500"/>
<path d="M144.517 48.5059H139.192V53.8312H144.517V48.5059Z" fill="#C4F500"/>
<path d="M149.842 48.5059H144.517V53.8312H149.842V48.5059Z" fill="#C4F500"/>
<path d="M6.05907 53.8312H0.733765V59.1565H6.05907V53.8312Z" fill="#C4F500"/>
<path d="M11.3844 53.8312H6.05908V59.1565H11.3844V53.8312Z" fill="#C4F500"/>
<path d="M16.7097 53.8312H11.3844V59.1565H16.7097V53.8312Z" fill="#C4F500"/>
<path d="M22.035 53.8312H16.7097V59.1565H22.035V53.8312Z" fill="#C4F500"/>
<path d="M27.3602 53.8312H22.0349V59.1565H27.3602V53.8312Z" fill="#C4F500"/>
<path d="M38.0108 53.8312H32.6855V59.1565H38.0108V53.8312Z" fill="#C4F500"/>
<path d="M43.3362 53.8312H38.0109V59.1565H43.3362V53.8312Z" fill="#C4F500"/>
<path d="M53.9868 53.8312H48.6615V59.1565H53.9868V53.8312Z" fill="#C4F500"/>
<path d="M69.9626 53.8312H64.6373V59.1565H69.9626V53.8312Z" fill="#C4F500"/>
<path d="M80.6133 53.8312H75.288V59.1565H80.6133V53.8312Z" fill="#C4F500"/>
<path d="M117.89 53.8312H112.565V59.1565H117.89V53.8312Z" fill="#C4F500"/>
<path d="M128.541 53.8312H123.216V59.1565H128.541V53.8312Z" fill="#C4F500"/>
<path d="M144.517 53.8312H139.192V59.1565H144.517V53.8312Z" fill="#C4F500"/>
<path d="M6.05907 59.1566H0.733765V64.4819H6.05907V59.1566Z" fill="#C4F500"/>
<path d="M11.3844 59.1566H6.05908V64.4819H11.3844V59.1566Z" fill="#C4F500"/>
<path d="M22.035 59.1566H16.7097V64.4819H22.035V59.1566Z" fill="#C4F500"/>
<path d="M43.3362 59.1566H38.0109V64.4819H43.3362V59.1566Z" fill="#C4F500"/>
<path d="M80.6133 59.1566H75.288V64.4819H80.6133V59.1566Z" fill="#C4F500"/>
<path d="M85.9386 59.1566H80.6133V64.4819H85.9386V59.1566Z" fill="#C4F500"/>
<path d="M96.5892 59.1566H91.2639V64.4819H96.5892V59.1566Z" fill="#C4F500"/>
<path d="M123.216 59.1566H117.89V64.4819H123.216V59.1566Z" fill="#C4F500"/>
<path d="M139.192 59.1566H133.866V64.4819H139.192V59.1566Z" fill="#C4F500"/>
<path d="M155.167 59.1566H149.842V64.4819H155.167V59.1566Z" fill="#C4F500"/>
<path d="M11.3844 64.4818H6.05908V69.8071H11.3844V64.4818Z" fill="#C4F500"/>
<path d="M22.035 64.4818H16.7097V69.8071H22.035V64.4818Z" fill="#C4F500"/>
<path d="M27.3602 64.4818H22.0349V69.8071H27.3602V64.4818Z" fill="#C4F500"/>
<path d="M32.6855 64.4818H27.3602V69.8071H32.6855V64.4818Z" fill="#C4F500"/>
<path d="M38.0108 64.4818H32.6855V69.8071H38.0108V64.4818Z" fill="#C4F500"/>
<path d="M48.6615 64.4818H43.3362V69.8071H48.6615V64.4818Z" fill="#C4F500"/>
<path d="M64.6374 64.4818H59.3121V69.8071H64.6374V64.4818Z" fill="#C4F500"/>
<path d="M75.2879 64.4818H69.9626V69.8071H75.2879V64.4818Z" fill="#C4F500"/>
<path d="M80.6133 64.4818H75.288V69.8071H80.6133V64.4818Z" fill="#C4F500"/>
<path d="M112.565 64.4818H107.24V69.8071H112.565V64.4818Z" fill="#C4F500"/>
<path d="M123.216 64.4818H117.89V69.8071H123.216V64.4818Z" fill="#C4F500"/>
<path d="M128.541 64.4818H123.216V69.8071H128.541V64.4818Z" fill="#C4F500"/>
<path d="M155.167 64.4818H149.842V69.8071H155.167V64.4818Z" fill="#C4F500"/>
<path d="M6.05907 69.8071H0.733765V75.1324H6.05907V69.8071Z" fill="#C4F500"/>
<path d="M11.3844 69.8071H6.05908V75.1324H11.3844V69.8071Z" fill="#C4F500"/>
<path d="M16.7097 69.8071H11.3844V75.1324H16.7097V69.8071Z" fill="#C4F500"/>
<path d="M27.3602 69.8071H22.0349V75.1324H27.3602V69.8071Z" fill="#C4F500"/>
<path d="M43.3362 69.8071H38.0109V75.1324H43.3362V69.8071Z" fill="#C4F500"/>
<path d="M48.6615 69.8071H43.3362V75.1324H48.6615V69.8071Z" fill="#C4F500"/>
<path d="M59.3121 69.8071H53.9868V75.1324H59.3121V69.8071Z" fill="#C4F500"/>
<path d="M96.5892 69.8071H91.2639V75.1324H96.5892V69.8071Z" fill="#C4F500"/>
<path d="M101.914 69.8071H96.5891V75.1324H101.914V69.8071Z" fill="#C4F500"/>
<path d="M123.216 69.8071H117.89V75.1324H123.216V69.8071Z" fill="#C4F500"/>
<path d="M133.866 69.8071H128.541V75.1324H133.866V69.8071Z" fill="#C4F500"/>
<path d="M139.192 69.8071H133.866V75.1324H139.192V69.8071Z" fill="#C4F500"/>
<path d="M144.517 69.8071H139.192V75.1324H144.517V69.8071Z" fill="#C4F500"/>
<path d="M149.842 69.8071H144.517V75.1324H149.842V69.8071Z" fill="#C4F500"/>
<path d="M155.167 69.8071H149.842V75.1324H155.167V69.8071Z" fill="#C4F500"/>
<path d="M6.05907 75.1324H0.733765V80.4577H6.05907V75.1324Z" fill="#C4F500"/>
<path d="M32.6855 75.1324H27.3602V80.4577H32.6855V75.1324Z" fill="#C4F500"/>
<path d="M38.0108 75.1324H32.6855V80.4577H38.0108V75.1324Z" fill="#C4F500"/>
<path d="M48.6615 75.1324H43.3362V80.4577H48.6615V75.1324Z" fill="#C4F500"/>
<path d="M53.9868 75.1324H48.6615V80.4577H53.9868V75.1324Z" fill="#C4F500"/>
<path d="M59.3121 75.1324H53.9868V80.4577H59.3121V75.1324Z" fill="#C4F500"/>
<path d="M64.6374 75.1324H59.3121V80.4577H64.6374V75.1324Z" fill="#C4F500"/>
<path d="M69.9626 75.1324H64.6373V80.4577H69.9626V75.1324Z" fill="#C4F500"/>
<path d="M80.6133 75.1324H75.288V80.4577H80.6133V75.1324Z" fill="#C4F500"/>
<path d="M85.9386 75.1324H80.6133V80.4577H85.9386V75.1324Z" fill="#C4F500"/>
<path d="M107.24 75.1324H101.914V80.4577H107.24V75.1324Z" fill="#C4F500"/>
<path d="M128.541 75.1324H123.216V80.4577H128.541V75.1324Z" fill="#C4F500"/>
<path d="M144.517 75.1324H139.192V80.4577H144.517V75.1324Z" fill="#C4F500"/>
<path d="M155.167 75.1324H149.842V80.4577H155.167V75.1324Z" fill="#C4F500"/>
<path d="M32.6855 80.4578H27.3602V85.7831H32.6855V80.4578Z" fill="#C4F500"/>
<path d="M43.3362 80.4578H38.0109V85.7831H43.3362V80.4578Z" fill="#C4F500"/>
<path d="M48.6615 80.4578H43.3362V85.7831H48.6615V80.4578Z" fill="#C4F500"/>
<path d="M53.9868 80.4578H48.6615V85.7831H53.9868V80.4578Z" fill="#C4F500"/>
<path d="M64.6374 80.4578H59.3121V85.7831H64.6374V80.4578Z" fill="#C4F500"/>
<path d="M75.2879 80.4578H69.9626V85.7831H75.2879V80.4578Z" fill="#C4F500"/>
<path d="M80.6133 80.4578H75.288V85.7831H80.6133V80.4578Z" fill="#C4F500"/>
<path d="M91.2639 80.4578H85.9386V85.7831H91.2639V80.4578Z" fill="#C4F500"/>
<path d="M107.24 80.4578H101.914V85.7831H107.24V80.4578Z" fill="#C4F500"/>
<path d="M117.89 80.4578H112.565V85.7831H117.89V80.4578Z" fill="#C4F500"/>
<path d="M128.541 80.4578H123.216V85.7831H128.541V80.4578Z" fill="#C4F500"/>
<path d="M133.866 80.4578H128.541V85.7831H133.866V80.4578Z" fill="#C4F500"/>
<path d="M144.517 80.4578H139.192V85.7831H144.517V80.4578Z" fill="#C4F500"/>
<path d="M155.167 80.4578H149.842V85.7831H155.167V80.4578Z" fill="#C4F500"/>
<path d="M22.035 85.7831H16.7097V91.1084H22.035V85.7831Z" fill="#C4F500"/>
<path d="M32.6855 85.7831H27.3602V91.1084H32.6855V85.7831Z" fill="#C4F500"/>
<path d="M38.0108 85.7831H32.6855V91.1084H38.0108V85.7831Z" fill="#C4F500"/>
<path d="M43.3362 85.7831H38.0109V91.1084H43.3362V85.7831Z" fill="#C4F500"/>
<path d="M48.6615 85.7831H43.3362V91.1084H48.6615V85.7831Z" fill="#C4F500"/>
<path d="M53.9868 85.7831H48.6615V91.1084H53.9868V85.7831Z" fill="#C4F500"/>
<path d="M64.6374 85.7831H59.3121V91.1084H64.6374V85.7831Z" fill="#C4F500"/>
<path d="M85.9386 85.7831H80.6133V91.1084H85.9386V85.7831Z" fill="#C4F500"/>
<path d="M101.914 85.7831H96.5891V91.1084H101.914V85.7831Z" fill="#C4F500"/>
<path d="M107.24 85.7831H101.914V91.1084H107.24V85.7831Z" fill="#C4F500"/>
<path d="M112.565 85.7831H107.24V91.1084H112.565V85.7831Z" fill="#C4F500"/>
<path d="M139.192 85.7831H133.866V91.1084H139.192V85.7831Z" fill="#C4F500"/>
<path d="M6.05907 91.1083H0.733765V96.4336H6.05907V91.1083Z" fill="#C4F500"/>
<path d="M11.3844 91.1083H6.05908V96.4336H11.3844V91.1083Z" fill="#C4F500"/>
<path d="M16.7097 91.1083H11.3844V96.4336H16.7097V91.1083Z" fill="#C4F500"/>
<path d="M27.3602 91.1083H22.0349V96.4336H27.3602V91.1083Z" fill="#C4F500"/>
<path d="M48.6615 91.1083H43.3362V96.4336H48.6615V91.1083Z" fill="#C4F500"/>
<path d="M53.9868 91.1083H48.6615V96.4336H53.9868V91.1083Z" fill="#C4F500"/>
<path d="M64.6374 91.1083H59.3121V96.4336H64.6374V91.1083Z" fill="#C4F500"/>
<path d="M101.914 91.1083H96.5891V96.4336H101.914V91.1083Z" fill="#C4F500"/>
<path d="M107.24 91.1083H101.914V96.4336H107.24V91.1083Z" fill="#C4F500"/>
<path d="M112.565 91.1083H107.24V96.4336H112.565V91.1083Z" fill="#C4F500"/>
<path d="M117.89 91.1083H112.565V96.4336H117.89V91.1083Z" fill="#C4F500"/>
<path d="M133.866 91.1083H128.541V96.4336H133.866V91.1083Z" fill="#C4F500"/>
<path d="M144.517 91.1083H139.192V96.4336H144.517V91.1083Z" fill="#C4F500"/>
<path d="M149.842 91.1083H144.517V96.4336H149.842V91.1083Z" fill="#C4F500"/>
<path d="M6.05907 96.4337H0.733765V101.759H6.05907V96.4337Z" fill="#C4F500"/>
<path d="M11.3844 96.4337H6.05908V101.759H11.3844V96.4337Z" fill="#C4F500"/>
<path d="M38.0108 96.4337H32.6855V101.759H38.0108V96.4337Z" fill="#C4F500"/>
<path d="M53.9868 96.4337H48.6615V101.759H53.9868V96.4337Z" fill="#C4F500"/>
<path d="M59.3121 96.4337H53.9868V101.759H59.3121V96.4337Z" fill="#C4F500"/>
<path d="M69.9626 96.4337H64.6373V101.759H69.9626V96.4337Z" fill="#C4F500"/>
<path d="M75.2879 96.4337H69.9626V101.759H75.2879V96.4337Z" fill="#C4F500"/>
<path d="M80.6133 96.4337H75.288V101.759H80.6133V96.4337Z" fill="#C4F500"/>
<path d="M91.2639 96.4337H85.9386V101.759H91.2639V96.4337Z" fill="#C4F500"/>
<path d="M107.24 96.4337H101.914V101.759H107.24V96.4337Z" fill="#C4F500"/>
<path d="M117.89 96.4337H112.565V101.759H117.89V96.4337Z" fill="#C4F500"/>
<path d="M123.216 96.4337H117.89V101.759H123.216V96.4337Z" fill="#C4F500"/>
<path d="M139.192 96.4337H133.866V101.759H139.192V96.4337Z" fill="#C4F500"/>
<path d="M155.167 96.4337H149.842V101.759H155.167V96.4337Z" fill="#C4F500"/>
<path d="M6.05907 101.759H0.733765V107.084H6.05907V101.759Z" fill="#C4F500"/>
<path d="M11.3844 101.759H6.05908V107.084H11.3844V101.759Z" fill="#C4F500"/>
<path d="M22.035 101.759H16.7097V107.084H22.035V101.759Z" fill="#C4F500"/>
<path d="M27.3602 101.759H22.0349V107.084H27.3602V101.759Z" fill="#C4F500"/>
<path d="M53.9868 101.759H48.6615V107.084H53.9868V101.759Z" fill="#C4F500"/>
<path d="M59.3121 101.759H53.9868V107.084H59.3121V101.759Z" fill="#C4F500"/>
<path d="M64.6374 101.759H59.3121V107.084H64.6374V101.759Z" fill="#C4F500"/>
<path d="M75.2879 101.759H69.9626V107.084H75.2879V101.759Z" fill="#C4F500"/>
<path d="M85.9386 101.759H80.6133V107.084H85.9386V101.759Z" fill="#C4F500"/>
<path d="M91.2639 101.759H85.9386V107.084H91.2639V101.759Z" fill="#C4F500"/>
<path d="M123.216 101.759H117.89V107.084H123.216V101.759Z" fill="#C4F500"/>
<path d="M128.541 101.759H123.216V107.084H128.541V101.759Z" fill="#C4F500"/>
<path d="M133.866 101.759H128.541V107.084H133.866V101.759Z" fill="#C4F500"/>
<path d="M139.192 101.759H133.866V107.084H139.192V101.759Z" fill="#C4F500"/>
<path d="M144.517 101.759H139.192V107.084H144.517V101.759Z" fill="#C4F500"/>
<path d="M6.05907 107.084H0.733765V112.41H6.05907V107.084Z" fill="#C4F500"/>
<path d="M11.3844 107.084H6.05908V112.41H11.3844V107.084Z" fill="#C4F500"/>
<path d="M16.7097 107.084H11.3844V112.41H16.7097V107.084Z" fill="#C4F500"/>
<path d="M22.035 107.084H16.7097V112.41H22.035V107.084Z" fill="#C4F500"/>
<path d="M38.0108 107.084H32.6855V112.41H38.0108V107.084Z" fill="#C4F500"/>
<path d="M43.3362 107.084H38.0109V112.41H43.3362V107.084Z" fill="#C4F500"/>
<path d="M48.6615 107.084H43.3362V112.41H48.6615V107.084Z" fill="#C4F500"/>
<path d="M53.9868 107.084H48.6615V112.41H53.9868V107.084Z" fill="#C4F500"/>
<path d="M64.6374 107.084H59.3121V112.41H64.6374V107.084Z" fill="#C4F500"/>
<path d="M69.9626 107.084H64.6373V112.41H69.9626V107.084Z" fill="#C4F500"/>
<path d="M75.2879 107.084H69.9626V112.41H75.2879V107.084Z" fill="#C4F500"/>
<path d="M101.914 107.084H96.5891V112.41H101.914V107.084Z" fill="#C4F500"/>
<path d="M112.565 107.084H107.24V112.41H112.565V107.084Z" fill="#C4F500"/>
<path d="M117.89 107.084H112.565V112.41H117.89V107.084Z" fill="#C4F500"/>
<path d="M123.216 107.084H117.89V112.41H123.216V107.084Z" fill="#C4F500"/>
<path d="M128.541 107.084H123.216V112.41H128.541V107.084Z" fill="#C4F500"/>
<path d="M133.866 107.084H128.541V112.41H133.866V107.084Z" fill="#C4F500"/>
<path d="M139.192 107.084H133.866V112.41H139.192V107.084Z" fill="#C4F500"/>
<path d="M144.517 107.084H139.192V112.41H144.517V107.084Z" fill="#C4F500"/>
<path d="M149.842 107.084H144.517V112.41H149.842V107.084Z" fill="#C4F500"/>
<path d="M48.6615 112.41H43.3362V117.735H48.6615V112.41Z" fill="#C4F500"/>
<path d="M53.9868 112.41H48.6615V117.735H53.9868V112.41Z" fill="#C4F500"/>
<path d="M59.3121 112.41H53.9868V117.735H59.3121V112.41Z" fill="#C4F500"/>
<path d="M64.6374 112.41H59.3121V117.735H64.6374V112.41Z" fill="#C4F500"/>
<path d="M69.9626 112.41H64.6373V117.735H69.9626V112.41Z" fill="#C4F500"/>
<path d="M75.2879 112.41H69.9626V117.735H75.2879V112.41Z" fill="#C4F500"/>
<path d="M91.2639 112.41H85.9386V117.735H91.2639V112.41Z" fill="#C4F500"/>
<path d="M96.5892 112.41H91.2639V117.735H96.5892V112.41Z" fill="#C4F500"/>
<path d="M101.914 112.41H96.5891V117.735H101.914V112.41Z" fill="#C4F500"/>
<path d="M112.565 112.41H107.24V117.735H112.565V112.41Z" fill="#C4F500"/>
<path d="M133.866 112.41H128.541V117.735H133.866V112.41Z" fill="#C4F500"/>
<path d="M139.192 112.41H133.866V117.735H139.192V112.41Z" fill="#C4F500"/>
<path d="M48.6615 117.735H43.3362V123.06H48.6615V117.735Z" fill="#C4F500"/>
<path d="M53.9868 117.735H48.6615V123.06H53.9868V117.735Z" fill="#C4F500"/>
<path d="M64.6374 117.735H59.3121V123.06H64.6374V117.735Z" fill="#C4F500"/>
<path d="M69.9626 117.735H64.6373V123.06H69.9626V117.735Z" fill="#C4F500"/>
<path d="M75.2879 117.735H69.9626V123.06H75.2879V117.735Z" fill="#C4F500"/>
<path d="M85.9386 117.735H80.6133V123.06H85.9386V117.735Z" fill="#C4F500"/>
<path d="M91.2639 117.735H85.9386V123.06H91.2639V117.735Z" fill="#C4F500"/>
<path d="M107.24 117.735H101.914V123.06H107.24V117.735Z" fill="#C4F500"/>
<path d="M112.565 117.735H107.24V123.06H112.565V117.735Z" fill="#C4F500"/>
<path d="M123.216 117.735H117.89V123.06H123.216V117.735Z" fill="#C4F500"/>
<path d="M133.866 117.735H128.541V123.06H133.866V117.735Z" fill="#C4F500"/>
<path d="M139.192 117.735H133.866V123.06H139.192V117.735Z" fill="#C4F500"/>
<path d="M48.6615 123.06H43.3362V128.385H48.6615V123.06Z" fill="#C4F500"/>
<path d="M53.9868 123.06H48.6615V128.385H53.9868V123.06Z" fill="#C4F500"/>
<path d="M59.3121 123.06H53.9868V128.385H59.3121V123.06Z" fill="#C4F500"/>
<path d="M64.6374 123.06H59.3121V128.385H64.6374V123.06Z" fill="#C4F500"/>
<path d="M69.9626 123.06H64.6373V128.385H69.9626V123.06Z" fill="#C4F500"/>
<path d="M75.2879 123.06H69.9626V128.385H75.2879V123.06Z" fill="#C4F500"/>
<path d="M91.2639 123.06H85.9386V128.385H91.2639V123.06Z" fill="#C4F500"/>
<path d="M101.914 123.06H96.5891V128.385H101.914V123.06Z" fill="#C4F500"/>
<path d="M107.24 123.06H101.914V128.385H107.24V123.06Z" fill="#C4F500"/>
<path d="M112.565 123.06H107.24V128.385H112.565V123.06Z" fill="#C4F500"/>
<path d="M133.866 123.06H128.541V128.385H133.866V123.06Z" fill="#C4F500"/>
<path d="M149.842 123.06H144.517V128.385H149.842V123.06Z" fill="#C4F500"/>
<path d="M48.6615 128.385H43.3362V133.711H48.6615V128.385Z" fill="#C4F500"/>
<path d="M59.3121 128.385H53.9868V133.711H59.3121V128.385Z" fill="#C4F500"/>
<path d="M64.6374 128.385H59.3121V133.711H64.6374V128.385Z" fill="#C4F500"/>
<path d="M69.9626 128.385H64.6373V133.711H69.9626V128.385Z" fill="#C4F500"/>
<path d="M75.2879 128.385H69.9626V133.711H75.2879V128.385Z" fill="#C4F500"/>
<path d="M85.9386 128.385H80.6133V133.711H85.9386V128.385Z" fill="#C4F500"/>
<path d="M91.2639 128.385H85.9386V133.711H91.2639V128.385Z" fill="#C4F500"/>
<path d="M96.5892 128.385H91.2639V133.711H96.5892V128.385Z" fill="#C4F500"/>
<path d="M107.24 128.385H101.914V133.711H107.24V128.385Z" fill="#C4F500"/>
<path d="M112.565 128.385H107.24V133.711H112.565V128.385Z" fill="#C4F500"/>
<path d="M117.89 128.385H112.565V133.711H117.89V128.385Z" fill="#C4F500"/>
<path d="M123.216 128.385H117.89V133.711H123.216V128.385Z" fill="#C4F500"/>
<path d="M128.541 128.385H123.216V133.711H128.541V128.385Z" fill="#C4F500"/>
<path d="M133.866 128.385H128.541V133.711H133.866V128.385Z" fill="#C4F500"/>
<path d="M139.192 128.385H133.866V133.711H139.192V128.385Z" fill="#C4F500"/>
<path d="M149.842 128.385H144.517V133.711H149.842V128.385Z" fill="#C4F500"/>
<path d="M48.6615 133.711H43.3362V139.036H48.6615V133.711Z" fill="#C4F500"/>
<path d="M53.9868 133.711H48.6615V139.036H53.9868V133.711Z" fill="#C4F500"/>
<path d="M59.3121 133.711H53.9868V139.036H59.3121V133.711Z" fill="#C4F500"/>
<path d="M69.9626 133.711H64.6373V139.036H69.9626V133.711Z" fill="#C4F500"/>
<path d="M80.6133 133.711H75.288V139.036H80.6133V133.711Z" fill="#C4F500"/>
<path d="M91.2639 133.711H85.9386V139.036H91.2639V133.711Z" fill="#C4F500"/>
<path d="M101.914 133.711H96.5891V139.036H101.914V133.711Z" fill="#C4F500"/>
<path d="M107.24 133.711H101.914V139.036H107.24V133.711Z" fill="#C4F500"/>
<path d="M117.89 133.711H112.565V139.036H117.89V133.711Z" fill="#C4F500"/>
<path d="M128.541 133.711H123.216V139.036H128.541V133.711Z" fill="#C4F500"/>
<path d="M149.842 133.711H144.517V139.036H149.842V133.711Z" fill="#C4F500"/>
<path d="M59.3121 139.036H53.9868V144.361H59.3121V139.036Z" fill="#C4F500"/>
<path d="M64.6374 139.036H59.3121V144.361H64.6374V139.036Z" fill="#C4F500"/>
<path d="M69.9626 139.036H64.6373V144.361H69.9626V139.036Z" fill="#C4F500"/>
<path d="M75.2879 139.036H69.9626V144.361H75.2879V139.036Z" fill="#C4F500"/>
<path d="M80.6133 139.036H75.288V144.361H80.6133V139.036Z" fill="#C4F500"/>
<path d="M91.2639 139.036H85.9386V144.361H91.2639V139.036Z" fill="#C4F500"/>
<path d="M101.914 139.036H96.5891V144.361H101.914V139.036Z" fill="#C4F500"/>
<path d="M107.24 139.036H101.914V144.361H107.24V139.036Z" fill="#C4F500"/>
<path d="M128.541 139.036H123.216V144.361H128.541V139.036Z" fill="#C4F500"/>
<path d="M133.866 139.036H128.541V144.361H133.866V139.036Z" fill="#C4F500"/>
<path d="M144.517 139.036H139.192V144.361H144.517V139.036Z" fill="#C4F500"/>
<path d="M149.842 139.036H144.517V144.361H149.842V139.036Z" fill="#C4F500"/>
<path d="M155.167 139.036H149.842V144.361H155.167V139.036Z" fill="#C4F500"/>
<path d="M64.6374 144.361H59.3121V149.687H64.6374V144.361Z" fill="#C4F500"/>
<path d="M75.2879 144.361H69.9626V149.687H75.2879V144.361Z" fill="#C4F500"/>
<path d="M85.9386 144.361H80.6133V149.687H85.9386V144.361Z" fill="#C4F500"/>
<path d="M107.24 144.361H101.914V149.687H107.24V144.361Z" fill="#C4F500"/>
<path d="M117.89 144.361H112.565V149.687H117.89V144.361Z" fill="#C4F500"/>
<path d="M123.216 144.361H117.89V149.687H123.216V144.361Z" fill="#C4F500"/>
<path d="M128.541 144.361H123.216V149.687H128.541V144.361Z" fill="#C4F500"/>
<path d="M139.192 144.361H133.866V149.687H139.192V144.361Z" fill="#C4F500"/>
<path d="M144.517 144.361H139.192V149.687H144.517V144.361Z" fill="#C4F500"/>
<path d="M155.167 144.361H149.842V149.687H155.167V144.361Z" fill="#C4F500"/>
<path d="M48.6615 149.687H43.3362V155.012H48.6615V149.687Z" fill="#C4F500"/>
<path d="M53.9868 149.687H48.6615V155.012H53.9868V149.687Z" fill="#C4F500"/>
<path d="M59.3121 149.687H53.9868V155.012H59.3121V149.687Z" fill="#C4F500"/>
<path d="M75.2879 149.687H69.9626V155.012H75.2879V149.687Z" fill="#C4F500"/>
<path d="M80.6133 149.687H75.288V155.012H80.6133V149.687Z" fill="#C4F500"/>
<path d="M91.2639 149.687H85.9386V155.012H91.2639V149.687Z" fill="#C4F500"/>
<path d="M96.5892 149.687H91.2639V155.012H96.5892V149.687Z" fill="#C4F500"/>
<path d="M101.914 149.687H96.5891V155.012H101.914V149.687Z" fill="#C4F500"/>
<path d="M107.24 149.687H101.914V155.012H107.24V149.687Z" fill="#C4F500"/>
<path d="M112.565 149.687H107.24V155.012H112.565V149.687Z" fill="#C4F500"/>
<path d="M117.89 149.687H112.565V155.012H117.89V149.687Z" fill="#C4F500"/>
<path d="M133.866 149.687H128.541V155.012H133.866V149.687Z" fill="#C4F500"/>
<path d="M139.192 149.687H133.866V155.012H139.192V149.687Z" fill="#C4F500"/>
<path d="M32.4193 0.578247H6.32533H0.733765V6.16981V32.2638V37.8553H6.32533H32.4193H38.0109V32.2638V6.16981V0.578247H32.4193ZM32.4193 32.2638H6.32533V6.16981H32.4193V32.2638Z" fill="#C4F500"/>
<path d="M149.576 0.578247H123.482H117.89V6.16981V32.2638V37.8553H123.482H149.576H155.167V32.2638V6.16981V0.578247H149.576ZM149.576 32.2638H123.482V6.16981H149.576V32.2638Z" fill="#C4F500"/>
<path d="M32.4193 117.735H6.32533H0.733765V123.326V149.42V155.012H6.32533H32.4193H38.0109V149.42V123.326V117.735H32.4193ZM32.4193 149.42H6.32533V123.326H32.4193V149.42Z" fill="#C4F500"/>
<path d="M27.3603 11.2288H11.3844V27.2047H27.3603V11.2288Z" fill="#C4F500"/>
<path d="M144.517 11.2288H128.541V27.2047H144.517V11.2288Z" fill="#C4F500"/>
<path d="M27.3603 128.385H11.3844V144.361H27.3603V128.385Z" fill="#C4F500"/>
</svg>
