<svg width="21" height="28" viewBox="0 0 21 28" fill="none" xmlns="http://www.w3.org/2000/svg">
<path d="M12.0761 27.57C10.0576 27.57 8.31689 27.0515 6.85392 26.0145C5.39096 24.9775 4.3354 23.5978 3.68726 21.8756L0.853923 14.4589C0.798367 14.3108 0.7567 14.158 0.728922 14.0006C0.701145 13.8432 0.687256 13.6812 0.687256 13.5145C0.687256 13.033 0.872441 12.6071 1.24281 12.2367C1.61318 11.8663 2.03911 11.6812 2.52059 11.6812C2.6317 11.6812 2.73818 11.6858 2.84003 11.695C2.94189 11.7043 3.03911 11.7275 3.1317 11.7645L3.96503 11.9867C4.3354 12.0793 4.62707 12.2043 4.84003 12.3617C5.053 12.5191 5.28911 12.8015 5.54837 13.2089V5.48671C5.54837 4.83857 5.77985 4.28301 6.24281 3.82005C6.70577 3.35708 7.26133 3.1256 7.90948 3.1256C8.1317 3.1256 8.3354 3.15801 8.52059 3.22283C8.70578 3.28764 8.87244 3.3756 9.02059 3.48671V3.26449C9.02059 2.61634 9.2567 2.06079 9.72892 1.59783C10.2011 1.13486 10.7613 0.903381 11.4095 0.903381C12.0021 0.903381 12.5113 1.09783 12.9373 1.48671C13.3632 1.8756 13.6224 2.32931 13.715 2.84783C13.7891 2.75523 13.9465 2.68579 14.1873 2.63949C14.428 2.5932 14.6502 2.57005 14.8539 2.57005C15.5576 2.57005 16.1271 2.83394 16.5623 3.36171C16.9974 3.88949 17.215 4.47746 17.215 5.1256V6.20894C17.3447 6.09783 17.5113 6.01912 17.715 5.97283C17.9187 5.92653 18.1224 5.90338 18.3261 5.90338C18.9743 5.90338 19.5299 6.13486 19.9928 6.59783C20.4558 7.06079 20.6873 7.61634 20.6873 8.26449V18.9589C20.6873 21.496 19.8863 23.5654 18.2845 25.1673C16.6826 26.7691 14.6132 27.57 12.0761 27.57ZM12.0761 25.9034C14.1502 25.9034 15.8261 25.2599 17.1039 23.9728C18.3817 22.6858 19.0206 21.0145 19.0206 18.9589V8.26449C19.0206 8.06079 18.9558 7.89412 18.8261 7.76449C18.6965 7.63486 18.5299 7.57005 18.3261 7.57005C18.1224 7.57005 17.9558 7.63486 17.8261 7.76449C17.6965 7.89412 17.6317 8.06079 17.6317 8.26449V14.2367H15.5484V4.93116C15.5484 4.72746 15.4836 4.56079 15.3539 4.43116C15.2243 4.30153 15.0576 4.23671 14.8539 4.23671C14.6502 4.23671 14.4836 4.30153 14.3539 4.43116C14.2243 4.56079 14.1595 4.72746 14.1595 4.93116V14.2367H12.0761V3.26449C12.0761 3.06079 12.0113 2.89412 11.8817 2.76449C11.7521 2.63486 11.5854 2.57005 11.3817 2.57005C11.178 2.57005 11.0113 2.63486 10.8817 2.76449C10.7521 2.89412 10.6873 3.06079 10.6873 3.26449V14.2367H8.60392V5.48671C8.60392 5.28301 8.53911 5.11634 8.40948 4.98671C8.27985 4.85708 8.11318 4.79227 7.90948 4.79227C7.70577 4.79227 7.53911 4.85708 7.40948 4.98671C7.27985 5.11634 7.21503 5.28301 7.21503 5.48671V17.2923H5.60392L4.57614 14.6812C4.39096 14.1997 4.15485 13.8895 3.86781 13.7506C3.58077 13.6117 3.20577 13.4867 2.74281 13.3756C2.55763 13.3386 2.43263 13.3571 2.36781 13.4312C2.303 13.5052 2.30763 13.6256 2.3817 13.7923L5.27059 21.2923C5.80763 22.6812 6.65022 23.7969 7.79837 24.6395C8.94652 25.4821 10.3724 25.9034 12.0761 25.9034Z" fill="white"/>
</svg>
