<svg width="39" height="39" viewBox="0 0 39 39" fill="none" xmlns="http://www.w3.org/2000/svg">
<rect x="0.278076" y="0.183838" width="38.11" height="38.1057" rx="10" fill="#202020"/>
<path d="M29.4681 11.1251V17.2073M29.4681 17.2073H23.3859M29.4681 17.2073L24.7747 12.7876C23.3764 11.3884 21.5612 10.4816 19.6027 10.2038C17.6442 9.92597 15.6485 10.2922 13.9162 11.2474C12.184 12.2025 10.8091 13.6948 9.99878 15.4993C9.18844 17.3038 8.98654 19.3228 9.42351 21.252C9.86047 23.1813 10.9126 24.9162 12.4214 26.1955C13.9302 27.4747 15.8139 28.2289 17.7886 28.3445C19.7634 28.46 21.7222 27.9306 23.3698 26.836C25.0175 25.7414 26.2648 24.141 26.9237 22.2758" stroke="white" stroke-width="2" stroke-linecap="round" stroke-linejoin="round"/>
</svg>
