<svg width="13" height="12" viewBox="0 0 13 12" fill="none" xmlns="http://www.w3.org/2000/svg">
<path d="M12.5974 5.50591C12.7338 5.40431 12.8349 5.26257 12.8867 5.10057C12.9385 4.93858 12.9382 4.76444 12.886 4.60258C12.8338 4.44072 12.7323 4.29926 12.5956 4.19803C12.459 4.09679 12.2941 4.04087 12.124 4.03809L8.82143 3.91332C8.80519 3.9122 8.78962 3.90641 8.7766 3.89665C8.76358 3.88688 8.75366 3.87356 8.74804 3.85828L7.60681 0.775859C7.54947 0.619037 7.44532 0.483623 7.30847 0.38795C7.17162 0.292277 7.00868 0.240967 6.8417 0.240967C6.67473 0.240967 6.51178 0.292277 6.37494 0.38795C6.23809 0.483623 6.13394 0.619037 6.0766 0.775859L4.93904 3.86929C4.93342 3.88456 4.9235 3.89789 4.91048 3.90765C4.89746 3.91742 4.88189 3.92321 4.86565 3.92433L1.56306 4.0491C1.39301 4.05188 1.2281 4.1078 1.09144 4.20903C0.954787 4.31027 0.85324 4.45173 0.801041 4.61359C0.748841 4.77545 0.748607 4.94958 0.800371 5.11158C0.852135 5.27358 0.953301 5.41532 1.08968 5.51692L3.68039 7.55352C3.69335 7.56372 3.70304 7.5775 3.70826 7.59315C3.71348 7.60881 3.71399 7.62565 3.70974 7.64159L2.81804 10.8011C2.77183 10.962 2.77631 11.1332 2.83086 11.2914C2.88541 11.4497 2.98739 11.5873 3.12293 11.6855C3.25846 11.7838 3.42096 11.8379 3.58834 11.8405C3.75571 11.8431 3.91982 11.7941 4.05835 11.7001L6.79584 9.86534C6.80932 9.85602 6.82532 9.85104 6.8417 9.85104C6.85809 9.85104 6.87409 9.85602 6.88757 9.86534L9.62506 11.7001C9.76171 11.7973 9.92524 11.8495 10.0929 11.8495C10.2606 11.8495 10.4241 11.7973 10.5608 11.7001C10.6964 11.6028 10.7984 11.4659 10.853 11.3081C10.9075 11.1504 10.9118 10.9797 10.8654 10.8194L9.96633 7.64893C9.96156 7.63301 9.96183 7.61601 9.96708 7.60025C9.97233 7.58449 9.98232 7.57073 9.99568 7.56086L12.5974 5.50591Z" fill="white"/>
</svg>
