<svg width="39" height="39" viewBox="0 0 39 39" fill="none" xmlns="http://www.w3.org/2000/svg">
<rect x="0.334961" y="0.604858" width="38.11" height="38.1057" rx="10" fill="#FF155B"/>
<path d="M10.3896 13.5236H12.3896M12.3896 13.5236H28.3896M12.3896 13.5236V27.5236C12.3896 28.054 12.6004 28.5627 12.9754 28.9378C13.3505 29.3128 13.8592 29.5236 14.3896 29.5236H24.3896C24.9201 29.5236 25.4288 29.3128 25.8039 28.9378C26.1789 28.5627 26.3896 28.054 26.3896 27.5236V13.5236H12.3896ZM15.3896 13.5236V11.5236C15.3896 10.9931 15.6004 10.4844 15.9754 10.1093C16.3505 9.73427 16.8592 9.52356 17.3896 9.52356H21.3896C21.9201 9.52356 22.4288 9.73427 22.8039 10.1093C23.1789 10.4844 23.3896 10.9931 23.3896 11.5236V13.5236M17.3896 18.5236V24.5236M21.3896 18.5236V24.5236" stroke="white" stroke-width="2" stroke-linecap="round" stroke-linejoin="round"/>
</svg>
